<svg width="1200" height="1216" viewBox="0 0 1200 1216" fill="none" xmlns="http://www.w3.org/2000/svg">
<path d="M761.752 1.73334L745.086 3.2L729.752 12.1333C712.819 21.8667 714.952 19.7333 685.219 57.8667C667.085 81.0667 657.619 95.4667 653.885 105.867C652.152 110.267 648.019 118.4 644.552 123.867C640.952 129.333 634.819 140.4 630.685 148.533C624.552 160.533 621.352 164.933 613.086 173.067C602.819 183.333 598.019 190.133 595.219 198.8C594.285 201.6 592.019 205.067 590.019 206.533L586.552 209.333L590.419 212.8L594.419 216.133L590.552 213.867C586.019 211.2 582.552 207.333 572.819 194C564.552 182.8 563.885 177.6 568.952 166.533C570.819 162.667 571.885 158.533 571.485 157.333C570.152 153.733 568.152 151.867 565.619 151.867C564.286 151.867 562.552 150.667 561.752 149.2C560.952 147.733 559.485 146.533 558.419 146.533C557.485 146.533 556.419 145.733 556.152 144.933C555.752 144 554.419 143.2 552.952 143.2C551.352 143.2 550.286 142.133 550.019 140.267C549.219 134.8 546.419 134 540.152 137.467C534.952 140.4 533.085 140.667 517.752 140.533C508.685 140.4 499.352 140.8 497.085 141.333C491.485 142.933 482.019 152.4 478.819 159.467C477.485 162.667 475.485 169.733 474.419 175.2C471.219 192 467.352 196.533 451.085 203.067C435.752 209.333 429.885 217.867 429.219 235.333C428.685 246.133 426.952 249.867 419.885 255.067C417.219 257.067 414.419 257.867 409.619 257.6C406.019 257.6 403.085 257.733 403.085 258C403.085 259.867 407.352 266.267 410.419 269.2C413.485 272.133 415.219 272.533 422.819 272.533C427.752 272.533 432.952 272 434.419 271.333C436.685 270.133 436.819 270.267 435.352 272.133C434.419 273.333 432.019 274.667 430.152 275.2C426.952 276 426.819 276.267 428.819 278.133C429.885 279.2 434.285 280.667 438.685 281.067L446.419 282L440.285 284.8C436.952 286.4 429.486 288.933 423.619 290.533C408.152 294.667 391.619 302.4 371.885 314.8C349.752 328.533 351.886 326.933 339.752 337.467C333.485 342.933 324.419 349.067 316.952 352.8C310.019 356.4 304.419 359.6 304.419 360.133C304.419 361.867 308.019 361.333 315.219 358.533C318.952 356.933 322.285 356 322.685 356.267C322.952 356.667 319.886 359.867 315.752 363.6C311.752 367.333 308.419 370.667 308.419 371.067C308.419 373.6 313.085 370.933 320.285 364.533C324.819 360.533 328.819 357.2 329.085 357.2C329.485 357.2 326.952 360 323.752 363.467C318.019 369.333 316.552 371.867 318.819 371.867C319.352 371.867 323.085 368.8 327.085 365.067C340.685 352.4 343.752 351.733 339.752 361.867C337.485 367.867 337.885 374.533 340.419 374.533C341.885 374.533 343.752 370.533 344.952 365.067C345.352 363.2 347.752 359.067 350.285 355.867C352.819 352.533 355.352 348.4 355.752 346.533C358.419 336 363.219 333.867 412.152 321.867C431.352 317.2 446.552 311.6 455.085 306C457.619 304.4 465.219 300.533 471.885 297.6C478.552 294.667 493.485 287.067 504.952 280.8C523.885 270.267 526.552 269.2 532.952 269.2C541.885 269.2 546.952 272.667 559.752 287.6C589.619 322.4 589.352 341.2 559.219 361.6C535.485 377.467 524.419 393.733 523.352 414C522.819 423.6 523.219 425.733 526.419 432.933C528.419 437.467 530.952 441.867 531.885 442.667C534.819 445.067 532.952 459.467 527.485 476.533C520.419 498.667 517.885 514.267 516.952 540.133C516.019 568.667 513.619 582 507.752 591.867C499.619 605.6 493.619 618.8 490.952 629.067C488.552 638.4 488.419 642 489.219 671.867C490.419 715.867 488.152 731.067 480.552 732.667C474.019 734.133 469.619 736.267 468.419 738.667C465.885 743.2 466.952 750.667 471.085 757.867C475.885 766.133 476.419 774.4 473.219 785.733C470.286 795.867 471.352 811.867 475.219 815.333C478.419 818.267 479.352 817.067 481.619 808.533C482.552 804.8 484.952 799.2 487.085 795.867C493.619 785.733 498.819 773.067 500.952 761.867C506.819 731.867 509.086 722.133 515.086 701.6C521.219 680.933 533.485 638.133 538.685 619.2C540.019 614.8 543.219 606.4 545.885 600.533C550.152 591.467 551.752 589.333 556.952 586.133C560.285 584 567.486 578.267 572.819 573.467C584.152 563.2 599.219 554 638.419 533.467C677.219 513.2 700.285 500.667 705.885 496.8C711.619 492.8 716.419 483.6 716.419 476.4C716.285 464.133 708.285 455.2 680.419 436.8C658.819 422.533 640.552 414.267 605.352 402.533C598.152 400.267 592.552 398 592.952 397.6C593.352 397.2 600.019 398.8 607.885 401.067L622.286 405.333L624.552 402.267C629.486 395.867 637.085 378.667 641.219 364.533C643.619 356.4 648.152 342.667 651.352 333.867C656.152 320.133 656.952 316.267 656.952 307.2C656.952 301.333 655.886 292.267 654.552 286.933C652.152 277.467 652.152 277.333 655.086 269.6C657.352 263.6 657.752 260.267 657.086 255.067C656.152 247.333 654.952 246 642.286 237.467C637.886 234.533 632.286 230 630.019 227.333C625.752 222.4 621.086 209.733 622.019 205.467C622.419 204.267 623.352 206.667 624.286 210.8C626.152 219.6 627.752 220.667 628.952 214C629.485 211.467 633.219 203.867 637.352 197.067C646.286 182.267 661.352 151.2 666.152 137.6C668.152 132 673.352 122.667 678.419 115.333C683.885 107.467 691.885 92.5333 699.885 75.6C717.085 38.8 720.952 32.1333 725.486 31.0667C727.486 30.6667 733.219 29.2 738.286 27.7333C745.486 25.6 748.152 25.3333 751.486 26.4C756.286 28.1333 761.752 28.2667 761.752 26.6667C761.752 24.6667 758.286 22.5333 753.619 21.7333C751.086 21.2 748.019 20.2667 746.685 19.6C744.285 18.4 744.285 18.2667 746.685 16.5333C750.019 13.8667 754.686 14.1333 761.619 17.2C764.819 18.6667 768.152 19.8667 769.219 19.8667C772.419 19.8667 771.219 17.7333 766.819 15.4667C763.086 13.4667 762.952 13.2 765.752 13.7333C767.619 14.1333 771.352 14.8 774.152 15.2C782.152 16.6667 780.019 13.8667 770.419 10.4C761.485 7.33333 761.086 5.2 769.352 5.2C774.552 5.2 780.419 3.06666 780.419 1.2C780.419 0.53333 780.019 0 779.486 0C778.819 0.133333 770.952 0.933337 761.752 1.73334ZM669.752 119.6C669.752 120.933 668.819 123.2 667.752 124.667C666.019 126.933 666.019 126.667 667.352 122.133C668.952 116.667 669.752 115.867 669.752 119.6ZM554.819 181.867C551.486 184.933 548.552 186.533 546.152 186.533C542.819 186.4 542.952 186.267 547.619 184.533C550.552 183.6 554.019 181.467 555.619 180C557.086 178.4 558.686 177.2 559.086 177.2C559.486 177.2 557.486 179.333 554.819 181.867ZM535.086 188.533C534.152 189.6 532.819 190.533 532.019 190.533C531.219 190.533 531.752 189.6 533.219 188.533C536.552 186 537.219 186 535.086 188.533ZM445.752 208.8C443.885 210 441.219 211.867 439.619 213.067C438.152 214.267 438.952 213.2 441.619 210.8C444.152 208.533 446.819 206.533 447.619 206.533C448.419 206.533 447.486 207.467 445.752 208.8ZM546.286 217.467L546.419 223.2L537.752 224.267C526.685 225.6 514.819 231.2 506.819 238.8C503.219 242 500.419 244.4 500.419 243.867C500.419 243.467 503.219 240.267 506.819 236.933C514.685 229.2 525.352 223.867 534.552 222.933C540.686 222.267 541.752 221.733 543.086 218.4C544.019 216.4 544.285 213.333 543.752 211.6C542.952 209.2 543.085 208.8 544.419 210.133C545.352 211.067 546.286 214.267 546.286 217.467ZM495.085 251.067C495.085 251.333 491.085 253.867 486.152 256.667C481.085 259.467 472.819 264.4 467.752 267.867C455.619 275.867 455.085 276.133 455.085 275.467C455.085 274 471.352 262.8 481.752 256.933C492.419 250.933 495.085 249.733 495.085 251.067ZM629.885 265.6C630.685 268.4 630.819 272.533 630.419 274.667C628.285 284.133 617.352 290.667 608.152 288C603.752 286.8 603.752 286.8 609.885 286.667C616.819 286.533 624.019 282.533 626.819 277.2C629.352 272.4 628.019 263.467 623.885 256.8L620.286 251.2L624.419 255.867C626.685 258.4 629.085 262.8 629.885 265.6ZM558.286 261.2C559.352 262.4 558.952 262.667 556.419 261.867C554.685 261.333 550.152 260.4 546.419 259.733C539.885 258.667 539.886 258.667 548.286 259.2C552.952 259.467 557.352 260.4 558.286 261.2ZM630.685 368.133C630.285 369.067 630.019 368.4 630.019 366.533C630.019 364.667 630.285 364 630.685 364.8C630.952 365.733 630.952 367.333 630.685 368.133ZM559.086 460.267C563.886 462.133 570.285 464.4 573.485 465.333C582.152 467.867 579.219 468.133 568.952 465.733C556.685 462.933 544.819 457.067 539.086 451.067L534.419 446.133L542.419 451.467C546.819 454.4 554.286 458.4 559.086 460.267ZM630.419 475.867C642.819 477.333 656.019 478.667 659.752 478.667C665.752 478.8 665.486 478.933 656.552 480C649.886 480.8 643.752 482.667 637.086 485.867C628.552 489.867 625.752 492.267 614.685 504.8C602.019 519.333 577.485 543.867 575.885 543.867C575.485 543.867 576.019 541.6 577.219 538.8C584.285 522.933 595.219 490 598.419 475.333C599.085 471.867 599.619 471.6 603.485 472.4C605.885 472.933 617.885 474.533 630.419 475.867ZM566.019 541.867C569.886 543.733 571.885 545.2 570.419 545.2C568.952 545.067 566.285 544.267 564.419 543.2C560.419 540.933 554.552 540.667 550.819 542.667C548.819 543.733 548.286 543.733 549.086 542.533C550.019 540.933 554.552 538.8 557.352 538.667C558.152 538.533 562.019 540 566.019 541.867ZM571.619 552.533C570.286 553.6 568.552 554.533 567.885 554.533C567.085 554.533 567.752 553.6 569.219 552.533C570.552 551.467 572.285 550.533 572.952 550.533C573.752 550.533 573.086 551.467 571.619 552.533ZM547.086 592.533C547.086 592.8 544.286 594.667 540.819 596.667C537.219 598.667 532.285 601.867 529.752 603.6L525.086 606.933L528.419 603.333C530.285 601.2 535.086 597.867 539.086 595.733C547.219 591.6 547.086 591.6 547.086 592.533ZM488.019 740.133C487.619 741.2 487.219 740.8 487.219 739.333C487.086 737.867 487.485 737.067 487.885 737.6C488.285 738 488.419 739.2 488.019 740.133Z" fill="white"/>
<path d="M142.419 383.867C132.819 384.4 125.485 385.867 116.019 388.933C108.952 391.333 102.152 393.2 101.085 393.2C98.8188 393.2 81.8855 406.667 65.2188 421.733C52.9521 433.067 37.2188 450.533 26.6855 465.067L20.4188 473.467V485.733C20.4188 507.333 25.7521 534.933 35.8855 565.2C38.5521 572.933 41.3521 582.8 42.2855 587.2L43.8855 595.2L46.8188 587.2C49.3521 580.133 49.6188 579.867 48.9521 584.533C47.8855 592 41.8855 603.733 37.0855 607.333C34.9521 609.067 29.3521 613.2 24.8188 616.4C14.8188 623.733 12.1521 627.467 11.4855 635.6C10.9521 640.533 11.6188 643.333 14.6855 649.333C17.7521 655.333 18.2855 657.733 17.4855 662C15.8855 671.333 16.4188 694.8 18.4188 701.867C19.3521 705.467 23.6188 718.4 27.6188 730.533C31.6188 742.667 36.5521 758.667 38.5521 766.267C42.4188 781.067 46.9521 789.6 58.8188 804.8L65.8855 813.867L58.4188 806.133C54.2855 802 50.8188 798.533 50.6855 798.533C50.5521 798.533 50.4188 801.733 50.2855 805.6C50.2855 811.6 49.0855 814.4 41.7521 827.2C21.2188 862.667 7.88548 897.867 1.21881 934.267C-1.04786 946.267 -0.247859 952.933 4.41881 962.533C5.75214 965.067 7.48548 970.8 8.41881 975.2C9.75214 982.133 23.6188 1039.07 27.0855 1051.87C30.0188 1063.2 32.5521 1082.67 33.7521 1104.13C35.2188 1129.73 35.0855 1128.93 40.6855 1146.4C43.8855 1156.27 44.5521 1160.4 44.0188 1166C43.2188 1174.4 44.9521 1176.93 49.4855 1173.73C51.0855 1172.67 52.4188 1170.93 52.4188 1170C52.4188 1168.93 53.7521 1165.33 55.2188 1161.87C57.7521 1156.27 58.0188 1153.87 57.2188 1144.67C56.1521 1131.47 58.0188 1124.4 64.8188 1115.33C73.4855 1104.13 72.9521 1097.2 63.0855 1092.13C59.8855 1090.53 56.4188 1087.87 55.4855 1086.13C53.0855 1081.87 53.3521 1058.27 55.8855 1039.2C60.0188 1007.87 57.4855 989.467 45.0855 963.067C37.4855 946.933 38.2855 944.267 58.4188 919.2C73.0855 900.933 88.0188 879.2 93.8855 867.467L98.0188 859.467L94.0188 849.333C89.3521 837.6 85.7521 825.6 85.7521 822.667C85.8855 821.467 87.6188 825.067 89.6188 830.533C103.085 866.667 116.019 891.2 139.219 923.867C158.552 951.467 160.552 953.6 169.752 959.333C177.752 964.267 182.685 970 208.685 1004.53C226.552 1028.4 236.419 1044.13 247.085 1065.87C258.819 1089.87 269.219 1104.93 281.885 1115.87C286.552 1119.87 293.219 1126.13 296.685 1129.87C304.552 1138.4 306.419 1137.2 306.419 1123.47C306.285 1112.8 304.952 1109.33 296.019 1097.47C290.819 1090.53 290.552 1089.87 289.619 1077.07C288.419 1059.73 286.152 1056.53 274.552 1056.53C268.552 1056.53 267.619 1056.13 265.086 1052.4C261.886 1047.73 257.752 1034.93 250.552 1007.87C241.619 974.533 230.285 957.067 206.419 939.733C188.552 926.8 185.885 921.2 168.419 862.8C158.419 829.067 157.619 825.467 157.219 812.8C156.552 786.267 145.085 768 118.019 750.133C94.2855 734.4 90.6855 714.4 106.819 687.333C115.352 672.933 130.152 657.867 136.552 656.8C141.619 656.133 151.885 657.733 154.419 659.733C158.152 662.8 190.285 676.4 206.552 681.867C216.819 685.2 228.019 689.6 231.619 691.467C240.685 696.267 258.019 700.8 279.086 703.867C288.952 705.333 303.885 707.867 312.285 709.6C328.419 712.667 331.485 714.4 338.152 724.4C339.619 726.4 343.085 729.733 346.019 731.867C348.819 734 353.086 738.133 355.219 741.067C357.352 744.133 359.752 746.533 360.419 746.533C363.219 746.533 361.486 740.267 357.086 734.667C352.019 728.4 352.152 726.133 357.219 727.2C358.952 727.6 362.019 728.133 363.885 728.533C365.752 728.933 370.552 732.4 374.552 736.133C378.819 740.133 382.419 742.533 383.619 742.133C384.686 741.733 386.286 742.267 387.086 743.333C388.819 745.333 392.419 745.867 392.419 744.133C392.419 743.6 389.086 739.867 385.086 735.867C381.086 732 378.019 728.533 378.285 728.267C378.419 728 380.819 728.8 383.486 729.867C388.819 732 392.419 732.4 392.419 730.8C392.419 730.267 387.752 727.467 382.152 724.533C376.419 721.733 370.285 718.4 368.419 717.2C366.552 716 362.152 713.867 358.419 712.533C354.819 711.2 339.219 703.867 324.019 696.4C289.752 679.467 286.152 678.133 260.552 672.4C242.552 668.4 238.952 667.2 230.419 661.867C225.085 658.533 212.952 652.133 203.619 647.6C192.419 642.267 183.619 636.933 178.419 632.533C161.752 618.267 146.285 610.533 134.152 610.533C128.152 610.533 125.219 608.8 121.885 603.333C118.552 598 118.285 590.133 121.219 583.2C122.685 579.467 123.752 578.533 125.485 579.2C134.152 582.8 142.552 583.2 152.019 580.4C154.419 579.733 155.085 580.267 155.752 582.933C156.285 584.8 158.152 587.733 160.019 589.467C162.685 592 164.685 592.533 171.752 592.533C179.352 592.533 180.685 592.133 184.552 588.533C195.619 578 194.419 563.067 182.019 557.467L177.085 555.2L178.285 546.8C181.752 522.667 160.685 495.067 142.419 499.733C139.485 500.4 134.419 501.467 131.085 501.867C127.619 502.267 122.552 504.4 119.085 506.667C114.552 509.733 112.285 510.4 109.752 509.733C107.885 509.2 104.952 508.667 103.085 508.667C100.285 508.533 99.7521 509.2 99.7521 512.133C99.6188 514.533 98.1521 517.2 95.3521 519.6C92.9521 521.733 91.0855 524.267 91.0855 525.467C91.0855 526.533 89.3521 528.667 87.0855 530.267C81.7521 534.267 82.0188 537.733 88.4188 545.333C95.7521 554.133 95.6188 558.267 87.2188 576C83.6188 583.6 79.7521 591.067 78.5521 592.533C76.4188 595.067 76.4188 594.933 78.1521 591.2C79.8855 587.6 79.8855 586.133 77.7521 577.867C76.5521 572.667 72.6855 563.067 69.3521 556.267C65.2188 548 61.8855 538.8 59.2188 527.6C56.9521 518.667 53.3521 505.867 51.2188 499.333C48.9521 492.667 47.0855 486.4 47.0855 485.2C47.0855 484 50.8188 478.133 55.4855 472.267C60.1521 466.4 67.7521 455.467 72.4188 447.867C81.7521 432.667 96.5521 412.533 100.952 408.933C102.952 407.2 105.085 406.8 108.819 407.467C111.485 407.867 117.352 407.467 121.619 406.533C127.885 405.2 130.952 405.2 136.419 406.533C141.085 407.6 143.752 407.733 144.685 406.8C146.552 404.933 141.219 401.733 134.152 400.533C127.619 399.467 126.952 398.267 131.885 396C136.152 394.133 142.552 395.2 152.152 399.467C160.819 403.2 164.285 402.8 157.752 398.8C152.285 395.333 153.219 395.067 160.019 397.867C165.219 400 169.752 400.533 169.752 398.8C169.752 398.133 165.219 395.6 159.485 393.2C148.685 388.4 148.685 386.8 159.219 386.667C161.885 386.533 164.819 385.6 165.752 384.533C167.619 382.267 166.952 382.267 142.419 383.867ZM47.0855 480.267C47.0855 480.533 45.7521 481.867 44.1521 483.333L41.0855 485.867L43.6188 482.8C46.0188 480 47.0855 479.2 47.0855 480.267ZM112.819 557.2L118.419 558.267L113.219 558.4C110.152 558.533 106.285 557.467 103.619 555.733C98.0188 552.267 97.7521 551.067 103.219 553.867C105.485 555.067 109.752 556.533 112.819 557.2ZM136.285 558C137.619 559.2 128.952 558.4 127.085 557.2C125.752 556.4 126.819 556.267 130.419 556.8C133.352 557.2 136.019 557.733 136.285 558ZM124.152 648C119.885 648.533 115.219 649.733 113.619 650.533C112.152 651.467 110.552 651.733 110.152 651.333C108.552 649.733 118.685 646.667 125.085 646.8H131.752L124.152 648ZM52.4188 667.467C59.8855 672.8 72.1521 672.267 79.6188 666.4C83.4855 663.333 84.4188 664.933 80.6855 668.267C70.8188 677.2 53.0855 676 46.9521 666C43.6188 660.667 43.6188 656.667 46.9521 661.6C48.2855 663.6 50.6855 666.267 52.4188 667.467ZM48.2855 759.2C48.4188 761.467 48.1521 761.467 47.0855 759.867C46.4188 758.8 45.8855 756.4 45.8855 754.533C45.8855 751.467 46.0188 751.467 47.0855 753.867C47.7521 755.333 48.2855 757.733 48.2855 759.2ZM50.6855 1096.8C50.2855 1098.13 50.0188 1097.33 50.0188 1095.2C50.0188 1092.93 50.2855 1092 50.6855 1092.8C50.9521 1093.73 50.9521 1095.6 50.6855 1096.8Z" fill="white"/>
<path d="M785.752 409.333C785.752 410 788.819 412 792.685 413.733L799.485 416.8L795.085 417.6C792.685 418.133 788.952 418.533 786.819 418.533C784.285 418.533 783.085 419.067 783.352 420.133C783.752 421.2 786.419 421.6 791.219 421.467C796.419 421.2 797.885 421.467 796.419 422.4C795.352 423.2 793.085 423.867 791.352 423.867C789.619 423.867 788.685 424.4 789.085 425.2C789.485 425.867 794.285 426.533 799.619 426.533C808.285 426.533 812.419 427.867 812.419 430.667C812.419 431.067 809.485 431.2 805.752 430.8C797.352 430 794.152 431.067 796.419 433.867C797.485 435.067 800.419 435.867 803.752 435.867C807.885 435.867 810.685 436.8 813.352 439.067C815.352 440.8 819.619 443.467 822.552 444.933C825.619 446.533 828.419 448.667 828.952 449.867C829.352 450.933 830.285 460.133 831.085 470.267C833.485 499.867 836.419 523.333 839.219 533.6C842.952 547.2 843.352 548 844.552 542.533C845.352 538.8 845.485 539.2 845.085 544.533C843.752 558.933 851.352 594 861.619 621.2C864.419 628.933 867.219 637.6 867.752 640.267C868.952 646.4 869.752 645.867 872.685 636.8C874.952 630.267 874.952 630.133 874.285 635.2C873.885 638.133 871.885 644.4 869.619 649.067C867.485 653.733 865.752 658.267 865.752 659.067C865.752 659.867 860.952 664.4 854.952 669.067C849.085 673.733 843.219 679.067 842.152 680.8C838.285 686.667 839.619 699.733 844.685 706.8C846.019 708.533 846.019 710.667 844.552 716.8C838.685 743.467 839.352 751.467 849.219 774.133C852.419 781.467 856.685 794.267 858.552 802.4C860.819 811.733 864.152 821.333 867.752 828.533C873.752 840.533 873.752 842.667 867.619 832.133C865.619 828.667 863.885 825.733 863.752 825.6C862.952 824.533 846.552 822.267 830.419 821.2C802.685 819.2 765.752 823.467 738.819 831.867C723.352 836.667 715.885 845.2 715.885 857.867C715.885 866.8 719.619 873.333 729.885 883.467C734.552 888 742.019 895.333 746.419 900C754.819 908.667 776.819 927.333 793.752 940.4C816.152 957.467 831.752 971.333 844.285 985.733C858.819 1002.27 869.085 1011.07 884.419 1020C889.885 1023.2 895.219 1026.93 896.152 1028.27C897.619 1030.13 898.419 1030.27 899.885 1029.07C902.685 1026.8 902.152 1023.2 898.419 1018.8C896.552 1016.53 895.085 1014 895.085 1012.93C895.085 1010.53 888.285 999.867 885.219 997.333C881.085 993.867 878.952 987.867 877.752 976.4C875.752 957.2 871.619 952.667 858.685 955.867C852.152 957.333 850.819 957.333 848.019 955.467C843.085 952.267 833.485 938.8 820.819 917.333C804.419 889.6 795.752 881.2 775.885 873.6C768.819 870.933 768.419 870.667 773.085 871.333C780.685 872.533 789.885 875.733 793.885 878.667C799.352 882.533 817.752 888.8 832.152 891.867C846.819 895.067 877.352 896.667 888.419 894.933L895.752 893.867L895.619 879.2C895.485 871.067 895.619 866.933 895.885 869.867C897.885 888 903.885 917.067 908.552 931.333C911.485 940.4 918.019 956.133 923.085 966.4C928.152 976.667 932.952 987.6 933.752 990.8C934.685 994 937.619 1000.13 940.285 1004.53C944.685 1011.6 945.752 1015.33 949.619 1035.2C951.885 1047.6 955.085 1063.6 956.419 1070.53C962.685 1101.2 965.619 1128 965.752 1152.53C965.752 1170 967.085 1176.4 973.752 1192.4C976.152 1198.13 978.285 1205.2 978.419 1208.13C978.685 1213.87 981.219 1216.67 984.019 1214.4C984.952 1213.6 986.285 1213.33 987.085 1213.87C987.885 1214.4 989.752 1213.6 990.952 1212.27C997.352 1205.47 998.552 1197.87 995.085 1185.47C991.485 1172.67 991.619 1170.8 997.085 1160.67C1004.69 1146.13 1002.95 1136.53 992.019 1134C987.485 1132.93 985.752 1128.8 985.752 1118.67C985.752 1110.13 988.685 1088.93 992.019 1072.53C993.219 1066.67 994.285 1055.33 994.285 1047.2C994.419 1030.13 991.752 1019.73 982.552 1001.33C975.219 986.667 973.219 978.267 973.352 962.533C973.485 955.6 973.619 928 973.752 901.2C973.885 846.267 973.619 843.867 963.485 826.667C958.152 817.467 942.419 800.8 934.019 795.2C931.219 793.333 926.952 788.533 924.419 784.267C920.552 777.867 919.752 775.2 919.352 767.067C918.952 760.8 919.619 754.933 921.085 749.867C923.885 740.133 937.219 718.533 948.019 706.133C962.819 689.2 964.552 689.2 989.485 704.133C995.485 707.733 1011.09 715.467 1024.15 721.333C1037.09 727.2 1048.69 732.933 1049.89 733.867C1050.95 734.933 1058.42 738.933 1066.29 742.667C1080.29 749.2 1090.15 752.667 1126.55 763.867C1136.15 766.8 1145.49 770.267 1147.35 771.733C1149.09 773.2 1151.35 776.933 1152.29 780.133C1153.22 783.333 1155.75 788.667 1157.89 792C1160.15 795.6 1161.75 800 1161.75 802.667C1161.75 808.533 1163.75 811.733 1165.89 809.6C1167.75 807.733 1167.89 802.8 1166.42 795.467C1165.22 789.467 1166.69 789.067 1172.42 794.133C1174.95 796.4 1177.49 800.8 1178.95 805.067C1181.62 813.467 1184.82 816 1183.75 808.933L1183.09 804.533L1185.75 809.867C1187.22 812.8 1188.55 815.733 1188.82 816.533C1189.22 817.2 1189.75 817.467 1190.29 816.933C1191.09 816.267 1187.62 802.933 1184.82 795.867C1184.42 794.8 1186.55 796.267 1189.75 798.933C1195.22 803.6 1199.09 805.2 1199.09 802.8C1199.09 800.4 1157.89 762.667 1148.42 756.267C1122.15 738.533 1093.49 722.667 1077.09 716.667C1067.89 713.333 1056.95 708.4 1052.69 705.6C1048.55 702.8 1042.42 699.067 1039.09 697.2C1024.55 689.2 1008.42 679.2 1009.49 678.8C1010.82 678.4 1027.49 687.6 1036.15 693.467C1041.62 697.2 1042.29 697.333 1047.75 696C1057.62 693.6 1062.55 694.267 1072.02 699.2C1084.69 706 1093.09 705.333 1105.62 696.8C1112.95 691.867 1121.62 690.667 1128.95 693.733C1131.89 694.933 1134.42 695.6 1134.82 695.333C1136.15 693.867 1126.55 680.933 1122.69 678.933C1120.42 677.867 1114.55 676.4 1109.49 675.733C1097.49 674.267 1093.35 671.733 1089.49 663.333C1085.35 654.4 1079.62 648 1073.09 645.067L1067.75 642.533H1073.75C1078.02 642.533 1082.55 644 1089.75 647.467C1102.95 654.133 1110.82 654.267 1122.42 648C1129.35 644.267 1131.35 643.733 1136.95 644.4L1143.49 645.067L1140.95 642.4C1134.95 635.733 1129.35 634.933 1110.69 638C1099.75 639.867 1093.35 636 1081.49 620.933C1079.62 618.4 1074.82 614.667 1070.82 612.533C1064.02 608.667 1063.09 608.533 1046.29 608.4C1030.02 608.267 1028.55 608.133 1022.29 604.667C1014.69 600.4 1008.95 593.467 1005.62 583.867C1000.55 569.333 985.885 555.333 975.885 555.467C962.419 555.467 952.285 557.2 947.219 560C941.885 562.933 941.619 562.933 934.819 560.8C926.819 558.267 925.352 558.8 926.019 564.133C926.552 567.333 926.019 568.267 923.485 569.333C921.885 570 920.419 571.333 920.419 572.533C920.419 573.6 919.485 574.533 918.419 574.533C917.352 574.533 916.419 575.467 916.419 576.533C916.419 577.6 914.952 579.467 913.085 580.667C906.819 584.8 907.352 589.067 916.019 599.067C919.085 602.667 920.419 605.733 920.419 608.667C920.419 613.6 908.552 638.133 904.285 642C901.352 644.667 900.952 643.067 903.619 639.467C905.085 637.6 905.085 636.133 903.485 630.8C899.219 616.933 897.219 612.667 890.019 602.8C883.752 594.133 881.885 590 877.619 575.867C874.819 566.667 870.952 555.6 869.085 551.333C867.219 546.933 865.085 538.8 864.285 532.667C863.619 526.8 862.019 518.4 860.952 514.133C856.952 498.667 839.085 443.333 836.952 440.133C832.819 433.867 814.685 415.867 812.552 415.867C811.219 415.867 804.952 414 798.419 411.867C784.819 407.2 785.752 407.467 785.752 409.333ZM940.685 607.333C943.085 606.933 944.285 607.067 943.752 607.867C942.552 609.867 935.485 609.467 931.085 607.2C925.485 604.267 926.152 603.6 932.019 606C934.819 607.2 938.552 607.733 940.685 607.333ZM959.085 608.933C956.952 609.733 951.085 608 951.085 606.667C951.085 606.133 953.219 606.267 955.752 607.067C958.285 607.867 959.752 608.8 959.085 608.933ZM950.152 642C952.152 646 952.819 646.267 960.819 646.8C966.419 647.067 971.752 648.533 976.685 650.933C984.685 654.8 996.819 664.933 999.352 669.733C1000.15 671.2 997.085 669.067 992.552 664.8C980.152 653.333 967.085 647.867 952.285 647.867C945.752 647.867 943.485 644.267 945.085 636.267C946.019 631.6 946.152 631.467 947.085 634.533C947.619 636.4 948.952 639.733 950.152 642ZM953.752 686.133C951.885 686.4 947.485 687.6 943.885 688.667C935.219 691.067 934.552 690.933 941.085 687.733C944.019 686.4 948.819 685.333 951.752 685.467C955.219 685.467 955.885 685.733 953.752 686.133ZM872.552 710C877.885 716.533 890.419 717.867 899.485 713.067C904.019 710.8 904.552 710.667 902.952 712.667C900.285 716 891.219 719.867 886.019 719.867C877.219 719.867 870.019 713.867 869.085 705.733C868.419 701.067 868.552 700.933 869.619 704.267C870.285 706.4 871.619 708.933 872.552 710ZM869.352 804.133C868.952 805.2 868.552 804.8 868.552 803.333C868.419 801.867 868.819 801.067 869.219 801.6C869.619 802 869.752 803.2 869.352 804.133Z" fill="white"/>
</svg>
